<svg width="79" height="62" viewBox="0 0 79 62" fill="none" xmlns="http://www.w3.org/2000/svg">
<path d="M59.7134 37.6845C61.9609 39.7346 63.8269 41.8086 62.4507 44.9512C61.2698 47.6435 58.9532 48.1207 56.3661 47.7606C54.9208 51.5785 53.4424 52.5209 49.6955 52.0887C48.1 56.0177 47.3909 56.4889 43.0069 56.549C42.7335 57.2303 42.5322 57.9567 42.1656 58.587C40.5941 61.3153 36.8892 61.8256 34.3802 59.6165C33.7282 59.0432 33.1753 58.8061 32.2799 58.9021C29.2241 59.2293 27.4453 57.7406 26.5288 54.2678C21.9375 53.6225 20.97 52.7851 20.2969 48.8021C19.8011 48.703 19.2693 48.622 18.7525 48.4929C15.0236 47.5595 13.6203 43.1983 16.1564 40.3228C17.0127 39.3534 18.0223 38.5159 19.065 37.5224C16.2826 34.731 13.6203 32.0477 10.9311 29.3884C10.7658 29.2263 10.3572 29.1423 10.1438 29.2263C8.77668 29.7666 7.85722 29.1062 6.96481 28.1938C5.3212 26.5129 3.62652 24.8801 1.98592 23.1963C0.68786 21.8636 0.669832 20.72 1.96488 19.4174C7.79111 13.5735 13.6324 7.73855 19.4886 1.91864C20.7206 0.694027 21.9135 0.703031 23.1605 1.91264C24.9904 3.68952 26.8353 5.46041 28.548 7.34835C29.0498 7.90063 29.4044 8.87312 29.3322 9.60248C29.1369 11.5625 30.6123 13.0422 32.4963 12.541C32.8809 12.4389 33.2775 12.3699 33.6681 12.2918C35.2276 11.9917 45.591 12.3128 46.9822 12.703C48.1661 13.0332 49.8518 11.2263 49.7766 10.0197C49.7226 9.13125 49.9299 7.98167 50.4798 7.34535C52.1504 5.42439 54.0254 3.67752 55.8553 1.90063C57.0962 0.697028 58.2861 0.697029 59.5271 1.93365C65.3834 7.75356 71.2216 13.5885 77.0509 19.4384C78.3008 20.693 78.3129 21.8546 77.0989 23.1092C75.2871 24.9762 73.4722 26.8461 71.5521 28.599C71.0323 29.0732 70.0648 29.4514 69.4278 29.3103C68.5324 29.1152 68.0606 29.3404 67.4927 29.9166C64.9657 32.4769 62.4056 35.0042 59.7134 37.6875V37.6845ZM35.4469 57.4524C36.9193 58.8901 38.629 59.0852 39.7648 58.0077C41.0298 56.8101 40.9006 55.2043 39.4042 53.6735C38.5989 52.8511 37.7786 52.0467 36.9643 51.2303C36.4175 50.681 35.8105 50.0837 36.5377 49.3213C37.3039 48.5169 37.9679 49.0422 38.5749 49.6545C39.8459 50.9302 41.0869 52.2388 42.415 53.4544C43.677 54.61 45.4588 54.598 46.4864 53.5385C47.5922 52.3979 47.5261 50.8461 46.2701 49.5254C45.3747 48.583 44.4372 47.6795 43.5177 46.7611C42.9438 46.1878 42.4871 45.5545 43.2413 44.8401C43.9925 44.1287 44.6024 44.636 45.1673 45.2003C46.4744 46.5089 47.7514 47.8536 49.1096 49.1112C50.3475 50.2578 52.1624 50.2428 53.181 49.1863C54.2597 48.0697 54.1846 46.4579 52.9587 45.1763C52.0933 44.2728 51.2009 43.3994 50.3085 42.5229C49.6925 41.9166 49.1246 41.1603 49.99 40.533C50.3475 40.2718 51.4172 40.548 51.8619 40.9291C53.2261 42.0967 54.413 43.4684 55.7261 44.699C57.0422 45.9327 58.836 45.9387 59.8937 44.7951C60.9393 43.6665 60.8582 42.0427 59.5992 40.7791C54.1606 35.3223 48.6979 29.8926 43.2593 24.4329C42.3549 23.5234 41.5736 23.5625 40.7053 24.4599C39.3832 25.8256 38.031 27.1643 36.6699 28.4909C35.498 29.6345 34.0858 30.2138 32.4392 29.9737C30.447 29.6825 29.0137 28.602 28.3407 26.678C27.6285 24.643 28.1063 22.8331 29.6177 21.3143C31.8262 19.0962 34.0587 16.8991 36.2823 14.693C36.2192 14.54 36.1591 14.3869 36.096 14.2308C34.7258 14.5189 33.3105 14.684 31.9975 15.1372C30.9819 15.4884 30.2848 15.3774 29.6177 14.582C28.9446 13.7806 28.2325 13.0062 27.4903 12.1688C26.9224 12.706 26.5558 13.0392 26.2073 13.3874C23.0192 16.566 19.8372 19.7506 16.6461 22.9291C16.0212 23.5535 15.3481 24.4929 14.4016 23.6105C13.407 22.686 14.3806 22.0107 14.9965 21.3924C17.4304 18.9432 19.8642 16.4969 22.3251 14.0747C23.9537 12.4749 25.6244 10.9201 27.2109 9.40738C25.0865 7.29133 23.1815 5.39138 21.3786 3.59348C15.4773 9.48242 9.50984 15.4404 3.7437 21.1973C5.5736 23.0372 7.49064 24.9642 9.5489 27.0352C9.9275 26.6 10.3482 25.9336 10.9431 25.5074C11.2917 25.2583 12.0128 25.2103 12.3824 25.4084C12.6528 25.5525 12.8632 26.4229 12.6859 26.672C12.115 27.4674 12.6198 27.8426 13.0825 28.3048C15.3511 30.565 17.6317 32.8101 19.8703 35.1002C20.6605 35.9106 21.4207 36.4359 22.6797 36.4419C24.5817 36.4509 26.033 37.5555 26.7151 39.3143C27.1328 40.3889 27.1328 41.6225 27.286 42.58C28.4248 43.3874 29.792 43.9787 30.5702 45.0112C31.3514 46.0497 31.5498 47.5294 32.0335 48.9011C35.6753 49.2943 38.2654 53.1843 35.4439 57.4524H35.4469ZM49.8067 14.0747C50.2664 14.5129 50.7322 14.7621 50.8674 15.1342C51.0567 15.6565 50.9966 16.2688 51.0446 16.8421C50.5068 16.8331 49.9449 16.9141 49.4401 16.7821C49.0886 16.689 48.8271 16.2868 48.5056 16.0497C45.1824 13.6095 40.6001 13.7866 37.5863 16.59C35.3898 18.634 33.2985 20.7921 31.2012 22.9381C29.9693 24.1988 29.9753 25.8376 31.1111 26.9542C32.2168 28.0407 33.8784 28.0017 35.1344 26.7981C36.4355 25.5525 37.6885 24.2588 38.9655 22.9892C41.0839 20.8881 42.8957 20.8911 45.0321 23.0192C49.0014 26.9722 52.9647 30.9371 56.931 34.8931C57.3066 35.2683 57.7032 35.6225 57.9286 35.8356C60.8702 32.9091 63.6947 30.1027 66.5853 27.2333C66.3359 26.9662 66.0144 26.597 65.6688 26.2488C62.5228 23.1002 59.3618 19.9637 56.2279 16.8001C55.6029 16.1668 54.452 15.4974 55.4346 14.4739C56.4081 13.4594 57.1203 14.5219 57.7723 15.1673C60.0139 17.3854 62.2404 19.6155 64.4639 21.8456C66.2217 23.6075 67.9675 25.3754 69.6291 27.0502C71.6633 25.0392 73.5713 23.1513 75.3772 21.3684C69.4668 15.4674 63.4994 9.50643 57.7032 3.71954C55.9033 5.51144 53.9713 7.4384 51.88 9.52144C52.3667 9.94465 53.0518 10.4039 53.5446 11.0192C53.788 11.3223 53.8781 12.0907 53.6738 12.3218C53.3974 12.631 52.7694 12.679 52.2826 12.727C52.0482 12.7511 51.7868 12.5169 51.8199 12.5319C51.0567 13.1172 50.4707 13.5705 49.8067 14.0777V14.0747ZM19.6749 46.674C19.7621 46.584 19.8492 46.4909 19.9364 46.4009C20.2759 46.3288 20.7236 46.3709 20.9399 46.1668C22.235 44.9452 23.6683 43.7986 24.6749 42.3609C25.408 41.3133 24.9213 40.0077 23.8305 39.1853C22.7428 38.3659 21.5469 38.3509 20.5073 39.2093C19.5097 40.0347 18.437 40.8991 17.803 41.9857C17.3493 42.7601 17.2531 44.0477 17.5776 44.8821C17.8691 45.6385 18.9478 46.0887 19.6779 46.674H19.6749ZM29.3503 47.9347C29.3383 46.4009 28.0823 45.1553 26.5739 45.1853C24.9183 45.2153 22.6617 47.5234 22.6737 49.1713C22.6857 50.69 23.9597 51.9447 25.4651 51.9206C27.1117 51.8966 29.3623 49.5855 29.3503 47.9377V47.9347ZM31.6008 51.1973C30.0924 51.2213 28.8905 52.4819 28.9116 54.0127C28.9326 55.5405 30.1856 56.7741 31.688 56.7441C33.1964 56.714 34.4163 55.4444 34.3923 53.9286C34.3712 52.4159 33.1002 51.1733 31.6008 51.1973Z" fill="#6CBDB1" stroke="#6CBDB1"/>
</svg>
