<svg width="57" height="70" viewBox="0 0 57 70" fill="none" xmlns="http://www.w3.org/2000/svg">
<path d="M52.0253 15.5685C49.4248 16.5396 46.9434 17.4219 44.5138 18.4298C44.1811 18.5676 43.9675 19.3304 43.943 19.8144C43.8362 22.158 43.9583 24.5199 43.7385 26.8512C43.0152 34.5926 36.3705 40.5418 28.5263 40.6C20.6822 40.6582 13.9154 34.6324 13.1829 26.8236C12.9753 24.5934 12.9814 22.3357 13.0425 20.0932C13.076 18.9077 12.6396 18.3961 11.5683 18.0193C8.40312 16.9072 5.28376 15.6726 2.13693 14.5085C0.955727 14.0705 0.0461685 13.4486 0.0461685 12.0271C0.0461685 10.5996 0.97404 9.98687 2.14609 9.5488C10.4328 6.44551 18.7043 3.30853 27.0094 0.263457C27.8396 -0.0428886 28.9658 -0.104158 29.7808 0.196061C38.2293 3.29015 46.6412 6.48228 55.0683 9.63764C56.3106 10.1033 56.9363 10.9274 56.9302 12.2906C56.9027 18.1112 56.9241 23.9317 56.8905 29.7554C56.8783 31.8569 55.0714 33.0424 53.4049 32.1142C52.3214 31.5107 52.1107 30.4967 52.1138 29.3694C52.1199 25.2858 52.1169 21.1991 52.1138 17.1155C52.1138 16.6652 52.068 16.2149 52.0314 15.5777L52.0253 15.5685ZM9.44697 11.9873C9.84681 12.1987 10.0055 12.3059 10.1795 12.3733C16.0214 14.579 21.8603 16.8031 27.7236 18.9536C28.2638 19.1527 29.0208 19.0333 29.5915 18.8219C35.1679 16.7663 40.723 14.6617 46.2841 12.5663C46.6229 12.4376 46.9403 12.26 47.3829 12.0486C47.0502 11.8525 46.8884 11.7269 46.7053 11.6565C40.9061 9.47527 35.113 7.27571 29.2924 5.1558C28.7064 4.94136 27.8945 5.04551 27.2841 5.26608C22.7546 6.92341 18.2465 8.64508 13.7323 10.3514C12.3679 10.8661 11.0066 11.393 9.44392 11.9904L9.44697 11.9873ZM38.9832 20.4731C36.047 21.5729 33.187 22.5961 30.3699 23.7265C29.0544 24.2534 27.864 24.2411 26.5485 23.7112C23.7344 22.5807 20.8744 21.5637 17.8161 20.421C17.8161 22.2713 17.7429 23.8888 17.8283 25.4972C18.1336 31.2105 22.5501 35.5821 28.1692 35.7996C33.4923 36.0048 38.2018 32.0468 38.9405 26.5387C39.1938 24.6394 38.9801 22.6788 38.9801 20.4731H38.9832Z" fill="#6CBDB1"/>
<path d="M56.8966 63.6403C56.8966 64.9177 56.9271 66.1952 56.8905 67.4696C56.8478 68.9707 55.9107 69.9694 54.5861 70C53.2797 70.0306 52.2206 69.0565 52.1474 67.5768C52.065 65.895 52.0222 64.2009 52.1321 62.5252C52.4404 57.8932 50.4412 54.3182 46.8243 51.7939C44.4405 50.1274 41.663 49.0123 39.0015 47.7838C38.5528 47.5786 37.6219 47.8788 37.2007 48.2648C35.6593 49.6709 34.2523 51.2241 32.7658 52.6945C30.0738 55.3536 26.8354 55.3383 24.1311 52.6547C22.6478 51.1842 21.2254 49.6464 19.7024 48.2158C19.3331 47.8696 18.5975 47.5724 18.161 47.7011C14.1962 48.8683 10.6129 50.7309 7.80794 53.8709C5.83316 56.0827 4.7191 58.6284 4.81067 61.6613C4.86866 63.4963 4.84729 65.3374 4.81067 67.1755C4.77404 68.9094 3.85227 69.9724 2.44826 70C0.97404 70.0276 0.0431163 68.94 0.0431163 67.1112C0.0431163 64.5072 -0.10339 61.8849 0.149944 59.3055C0.568096 55.0902 2.79316 51.7632 5.88504 48.9908C9.12954 46.0805 12.9417 44.2026 17.0744 42.9374C19.2873 42.2604 21.1888 42.8608 22.8004 44.463C24.3173 45.9733 25.8526 47.4683 27.3024 49.0429C28.1845 50.0018 28.8315 49.9129 29.674 49.0031C31.1634 47.3978 32.717 45.8477 34.2889 44.319C35.6441 43.0048 37.2892 42.3033 39.1663 42.7934C44.4436 44.172 49.1165 46.6503 52.8097 50.7615C56.1 54.4254 57.3911 58.754 56.8966 63.6403Z" fill="#6CBDB1"/>
</svg>
