<svg width="60" height="81" viewBox="0 0 60 81" fill="none" xmlns="http://www.w3.org/2000/svg">
<path d="M53.4205 67.3097C53.2247 67.4449 53.0017 67.6009 52.7788 67.7569C53.0246 67.8526 53.2955 67.9108 53.5122 68.0502C54.1039 68.4329 54.9435 68.356 55.3123 69.2358C55.4352 69.5291 56.3082 69.5104 56.8666 69.6393C57.3312 71.1848 56.2853 72.2228 55.3727 73.2919C55.0539 73.6642 54.6393 73.8826 55.0602 74.4962C55.1998 74.7001 55.0081 75.4156 54.7768 75.5363C54.0664 75.9107 54.0997 76.4328 54.131 77.0859C54.1685 77.92 53.7601 78.3298 52.8392 78.4858C50.6453 78.856 49.3327 77.3376 47.7701 76.3392C47.6013 76.231 47.6055 75.8816 47.4555 75.7089C47.1117 75.3137 46.7721 74.881 46.3408 74.6065C45.4428 74.0345 44.5053 73.5186 43.549 73.0506C42.8489 72.7053 42.0801 72.4994 41.3634 72.1832C38.2673 70.8187 35.1754 69.4417 32.0898 68.0502C31.7898 67.915 31.5523 67.6383 31.2877 67.4241C30.4626 66.7543 29.5396 66.1719 28.8375 65.3919C27.8499 64.2916 27.0207 63.0498 26.1415 61.8537C26.0685 61.756 26.0769 61.5147 26.1498 61.4086C26.8457 60.3915 26.5436 59.5865 25.7643 58.7399C25.2164 58.1429 24.8955 57.3442 24.4038 56.689C23.8892 56.0047 23.2558 55.4098 22.7433 54.7254C22.4224 54.297 22.0974 53.7977 22.0057 53.2881C21.8432 52.4041 21.3411 51.9132 20.6181 51.4723C20.2702 51.2601 20.0514 50.7962 19.8389 50.4114C19.641 50.0537 19.6139 49.5773 19.3597 49.2799C17.3012 46.8712 16.3178 43.8614 14.8031 41.1511C14.0031 39.7179 13.2218 38.3701 11.9383 37.3051C11.4029 36.862 11.0029 36.1735 10.7237 35.5183C9.6736 33.041 7.66929 31.7659 5.2337 30.9901C4.9691 30.9069 4.67741 30.8632 4.45031 30.7176C4.10029 30.4929 3.7961 30.1997 3.47316 29.9334C3.72943 29.6277 3.95444 29.2844 4.2503 29.0224C4.91493 28.4337 4.57115 27.8596 4.18154 27.3937C3.72943 26.855 2.95854 26.5201 3.40857 25.5965C3.44607 25.5196 3.24397 25.3157 3.13772 25.1847C2.22098 24.0677 2.2189 22.9091 3.20855 21.7984C4.23571 20.646 5.31287 19.5353 6.37753 18.4141C6.43795 18.3517 6.56713 18.3517 6.65672 18.3247C7.66929 19.6455 7.5547 20.4235 6.23794 21.2139C6.3317 21.6923 6.42754 22.1728 6.54629 22.7822C7.58804 21.2929 8.73395 22.7905 9.8507 22.6033C10.007 22.5763 10.2195 23.14 10.4674 23.3605C10.8987 23.7453 11.3383 24.205 11.8592 24.3631C12.0592 24.4234 12.4821 23.7453 12.8072 23.4083C14.2364 21.9253 13.9614 19.7682 14.8886 18.1271C15.5053 17.0351 16.4908 16.0866 17.4908 15.2962C18.2555 14.6909 19.2826 14.4017 20.2181 14.0336C22.9329 12.9665 24.7289 10.874 26.3373 8.58802C26.6019 8.21361 26.5957 7.66032 26.7832 7.21935C26.9853 6.7451 27.404 6.3291 27.4853 5.84861C27.5811 5.28699 27.5436 4.62554 27.3249 4.10761C27.1019 3.5772 26.5915 3.16535 26.1706 2.65782C28.0583 2.29173 29.7855 2.3167 31.2314 3.70616C31.3793 3.84761 31.6064 3.98905 31.6335 4.15753C31.9044 5.85277 33.3816 6.14397 34.5754 6.83039C35.0629 7.11119 35.2879 7.82881 35.6588 8.32594C35.8484 8.5797 36.0943 8.97907 36.3193 8.98115C37.1777 8.99155 37.3923 9.48244 37.4235 10.1834C37.4756 11.3212 38.0111 11.7268 39.1278 11.5063C40.0091 11.3316 40.9279 11.3004 41.7759 11.0362C42.501 10.8095 44.0094 10.5578 44.8678 10.6431C45.2782 10.6826 45.7158 10.4725 46.1387 10.3685C46.3929 10.3061 46.7013 10.1002 46.8846 10.1834C47.9138 10.6431 48.9181 11.159 49.9182 11.681C50.4911 11.9806 50.4224 12.3758 50.1036 12.8771C49.3494 14.0648 48.6493 15.2858 47.7347 16.8146C49.7744 16.3029 50.3786 17.4927 51.0349 18.618C50.9807 18.7386 50.9266 18.8614 50.8745 18.982C50.3786 18.8551 49.889 18.6741 49.3848 18.6138C48.7743 18.541 48.1034 18.4162 47.5451 18.5889C46.5408 18.8988 45.6345 19.6143 44.6219 19.7953C42.8947 20.1031 41.6363 21.087 40.2633 22.0272C39.1195 22.8113 38.3736 23.6246 38.3444 25.0495C38.3361 25.428 37.9423 25.7837 37.8548 26.1769C37.7277 26.7447 37.5798 27.3708 37.6964 27.9158C37.8527 28.6459 37.7777 29.0764 37.0527 29.4155C35.8796 29.9646 34.7962 30.6219 35.3338 32.2547C35.3817 32.4024 35.0171 32.65 34.94 32.8829C34.8296 33.2178 34.6296 33.7066 34.7754 33.9146C35.938 35.5787 36.8026 37.4465 38.3757 38.8381C39.2986 39.6535 39.1986 39.7658 38.3152 41.278C39.1049 41.278 39.7654 41.2904 40.4279 41.2759C41.3238 41.2551 41.9884 41.5504 42.2155 42.4969C42.453 43.487 43.1031 43.4953 44.0115 43.5161C45.845 43.5598 47.045 42.5863 48.2243 41.4423C48.4847 41.1906 48.7764 40.968 49.1535 40.6477C49.1535 42.4345 49.141 44.0361 49.1577 45.6357C49.1764 47.3871 49.9536 47.8738 51.5308 47.1478C52.7913 46.5675 53.5934 46.7859 54.3435 47.9611C55.3477 49.5399 56.3207 51.1374 57.3166 52.7224C57.7312 53.3838 57.5416 53.9267 57.1208 54.5237C56.8478 54.9126 56.6895 55.4202 56.6145 55.8965C56.479 56.7368 56.4061 57.5938 56.3874 58.4466C56.3811 58.8044 56.4916 59.235 56.7062 59.5137C57.4333 60.4643 56.8457 61.1611 56.354 61.9057C56.0728 62.3301 55.8603 62.8022 55.5602 63.2099C55.1227 63.8048 55.2873 64.2354 55.7207 64.77C55.9103 65.005 55.879 65.6082 55.7019 65.887C55.5602 66.1095 55.0435 66.097 54.6935 66.1844C54.6664 66.1906 54.631 66.1511 54.5977 66.149C54.1643 66.1158 53.7309 66.0846 53.2955 66.0534C53.3372 66.459 53.3809 66.8646 53.4267 67.3076L53.4205 67.3097Z" stroke="#6CBDB1" stroke-width="4" stroke-linecap="round" stroke-linejoin="round"/>
</svg>
