<svg width="70" height="70" viewBox="0 0 70 70" fill="none" xmlns="http://www.w3.org/2000/svg">
<path d="M7.45723 43.0347C1.36781 21.1717 21.2486 1.35006 43.0847 7.43572C45.0131 4.18427 47.7106 1.81498 51.3917 0.661621C58.1845 -1.46627 65.4692 1.67192 68.572 8.06753C71.6629 14.4393 69.6122 22.1641 63.6927 26.1099C62.7627 26.7298 62.5213 27.2543 62.7866 28.3392C67.8477 48.9833 49.025 67.8155 28.3872 62.7699C27.4632 62.5434 26.873 62.5136 26.2262 63.512C23.0519 68.4205 17.1771 70.8434 11.6361 69.696C5.73741 68.4741 1.45425 64.1766 0.264983 58.2817C-0.852752 52.7444 1.63011 46.924 6.49449 43.6785C6.81938 43.4609 7.14427 43.2434 7.45723 43.0347ZM28.2113 59.3039C28.3842 59.4201 28.4587 59.5036 28.5452 59.5244C37.8835 61.7686 46.0057 59.5036 52.9475 52.9202C53.186 52.6937 53.4185 52.196 53.332 51.9278C52.3961 49.0519 52.1636 45.8451 49.3768 43.8424C48.0236 42.8708 47.4304 41.4045 47.1949 39.7565C46.873 37.5004 46.3037 35.4679 44.5005 33.7006C42.2292 31.4774 43.2456 27.7401 46.1487 26.3692C46.4736 26.2142 46.8045 26.0742 47.2039 25.8954C42.2322 21.8214 40.4855 16.7222 41.8149 10.5143C37.034 9.24771 32.411 9.26857 27.5496 10.7378C28.0504 11.1193 28.3186 11.3309 28.5929 11.5336C30.8194 13.1876 31.5258 14.9519 30.4408 17.4791C29.803 18.9663 28.6256 20.2627 27.5198 21.4965C26.7478 22.3578 26.256 23.1565 26.2799 24.3635C26.2978 25.2188 26.0116 26.1159 25.7106 26.9384C25.3678 27.8772 23.9669 28.518 24.9207 29.7965C25.8984 31.1078 27.1085 30.1303 28.2173 30.0796C28.5094 30.0647 28.8045 29.8919 29.0906 29.9157C30.2501 30.0081 31.6122 29.7965 32.5273 30.33C35.4483 32.0347 38.1309 34.0433 39.3529 37.4796C40.0772 39.5151 40.0742 41.4463 38.3723 42.7814C35.7404 44.8408 34.8641 47.3442 35.2873 50.5509C35.654 53.3345 34.0802 55.069 31.7195 56.1091C30.8164 56.5084 29.7315 56.5055 28.6346 56.7021C28.5064 57.486 28.3633 58.3592 28.2113 59.3009V59.3039ZM11.7911 24.6943C14.3246 26.2619 14.2799 26.2798 15.3797 28.8279C15.6182 29.3852 16.2113 29.9574 16.7777 30.178C21.7791 32.1211 23.7106 34.8331 23.7106 40.1052C23.7106 40.5015 23.7523 40.9039 23.7016 41.2973C23.5407 42.5788 24.0057 43.4609 25.1562 44.1076C26.9207 45.1001 27.6063 46.6826 27.6152 48.7061C27.6212 49.8655 27.8715 51.0695 28.2531 52.1692C28.5839 53.1288 29.4095 53.6712 30.5034 53.1676C31.499 52.7086 32.1189 52.0649 32.1309 50.7864C32.1785 45.3117 31.1622 45.0226 35.9818 40.7012C36.3246 40.3913 36.6644 39.6283 36.5124 39.2945C35.9312 38.0071 35.347 36.6272 34.4021 35.6169C32.42 33.5009 30.0355 32.2373 27.0161 33.5516C26.9714 33.5695 26.9177 33.5725 26.8701 33.5784C24.8581 33.8765 23.1323 33.0718 22.0891 31.2956C21.0519 29.5313 21.2188 27.8295 22.3246 26.1189C22.727 25.499 23.0548 24.6973 23.0548 23.9761C23.0608 22.2177 23.6301 20.7902 24.9207 19.61C25.5794 19.008 26.2203 18.3792 26.8075 17.7086C28.101 16.2334 27.9461 14.9906 26.3782 13.8581C25.8149 13.4528 25.2963 12.9432 24.6733 12.675C24.2143 12.4783 23.5109 12.3859 23.1025 12.6005C17.961 15.3095 14.2411 19.3686 11.7911 24.6913V24.6943ZM64.9654 20.3879C68.11 16.3407 67.3917 9.57255 62.7776 5.7638C58.1309 1.92823 51.3917 2.44679 47.3619 6.94696C43.7285 11.0031 43.6152 17.7772 46.4081 20.4594C47.8894 19.0944 49.3529 17.7444 50.9088 16.3109C49.1323 13.6018 49.2665 10.5501 51.6182 8.35661C53.7314 6.38369 57.034 6.10951 59.2307 8.01091C60.2203 8.86624 61.0429 10.1567 61.4304 11.4054C62.0474 13.3902 61.3887 15.2976 60.5303 16.2751C62.113 17.7414 63.5496 19.0736 64.9654 20.3849V20.3879ZM23.1562 62.2722C26.6435 58.5052 26.2143 51.5702 22.0176 47.5945C17.5198 43.3298 10.5183 43.5295 6.2471 48.0207C1.91923 52.5715 2.69717 59.5244 5.55559 62.2305C7.24263 60.6718 8.91774 59.1281 10.5839 57.5873C7.85664 54.7948 7.62117 51.1649 10.1428 48.6704C12.4528 46.3875 16.1279 46.3637 18.4617 48.6167C21.1055 51.1678 20.9028 54.6279 18.1189 57.5843C19.797 59.143 21.4751 60.7046 23.1562 62.2663V62.2722ZM59.4751 28.0262C58.5124 28.3421 57.6778 28.4435 57.0459 28.8547C55.347 29.9574 53.5824 30.1899 51.645 29.719C50.6376 29.4717 49.5943 29.263 48.566 29.2601C47.9639 29.2601 47.028 29.5462 46.8432 29.9664C46.6137 30.4939 46.7538 31.5995 47.1592 31.9214C49.3559 33.6649 49.806 36.1027 50.259 38.618C50.4259 39.5479 50.7121 40.6863 51.3589 41.2585C53.6361 43.2791 55.183 45.6395 55.7195 48.6465C55.7493 48.8105 55.8864 48.9565 56.0504 49.2456C60.3186 42.6563 61.4155 35.7212 59.4841 28.0292L59.4751 28.0262ZM20.5154 42.6861C20.5154 41.4582 20.5154 40.5254 20.5154 39.5896C20.5154 36.5289 18.9505 34.2639 15.9967 33.3311C14.0236 32.7082 12.8015 31.5161 12.1845 29.5462C11.9759 28.8816 11.3917 28.3362 10.7478 27.4034C9.29032 32.5324 9.23071 37.1279 10.5541 41.8337C13.9878 40.9098 17.1771 41.2883 20.5124 42.6861H20.5154ZM49.6718 23.5261C53.1562 26.0831 58.727 26.0414 61.6033 23.4992C60.7747 20.8736 58.6078 19.2077 55.9163 19.1302C53.0221 19.0438 50.8402 20.5637 49.6718 23.529V23.5261ZM8.4319 64.874C11.5467 67.3863 17.0578 67.3833 20.3067 64.865C19.3678 62.0696 16.9654 60.3142 14.1964 60.4006C11.4334 60.4871 9.10254 62.2961 8.43488 64.871L8.4319 64.874ZM58.4557 12.7614C58.4736 11.2802 57.2367 9.99873 55.7493 9.957C54.1994 9.9123 52.885 11.2057 52.9058 12.7584C52.9267 14.2456 54.1875 15.4973 55.6718 15.5032C57.1353 15.5092 58.4379 14.2277 58.4557 12.7614ZM14.3365 50.1665C12.8224 50.1665 11.5854 51.3824 11.5675 52.8845C11.5467 54.4342 12.8551 55.7038 14.4259 55.662C15.9341 55.6233 17.1413 54.3656 17.1115 52.8725C17.0817 51.3705 15.8447 50.1665 14.3365 50.1694V50.1665Z" fill="#6CBDB1"/>
<path d="M35.6271 69.8838C34.8313 69.8838 34.0385 69.8838 33.2426 69.8838C32.0891 69.8838 31.0608 69.6066 31.1174 68.2089C31.1741 66.8201 32.1964 66.6234 33.3619 66.6979C37.2218 66.9452 40.9952 66.4326 44.6644 65.2524C58.4885 60.8 67.4334 47.8091 66.718 33.2506C66.6644 32.1389 66.8879 31.1883 68.1845 31.1018C69.4751 31.0154 69.8328 31.8886 69.9073 33.0241C71.1145 50.9562 57.6778 67.282 39.7762 69.5976C38.3991 69.7765 37.0131 69.8689 35.6301 70.003C35.6301 69.9642 35.6242 69.9255 35.6242 69.8867L35.6271 69.8838Z" fill="#6CBDB1"/>
<path d="M0.112979 34.2847C0.387197 14.636 17.0519 -0.906012 36.7359 0.0685277C37.8775 0.125152 38.8671 0.318868 38.9088 1.72256C38.9416 2.83121 38.0951 3.34382 36.5273 3.23951C20.9684 2.21728 6.14577 14.0101 3.75232 29.418C3.37378 31.8528 3.40657 34.3533 3.31715 36.8269C3.2784 37.8819 3.06678 38.773 1.86559 38.8594C0.589879 38.9518 0.127882 38.1203 0.11894 36.9669C0.109998 36.0729 0.11894 35.1788 0.11894 34.2877L0.112979 34.2847Z" fill="#6CBDB1"/>
</svg>
