<svg width="47" height="57" viewBox="0 0 47 57" fill="none" xmlns="http://www.w3.org/2000/svg">
<path d="M46.9788 24.5834C46.9788 28.2278 46.9444 29.8723 46.9987 33.5149C47.0168 34.6629 46.7184 35.6596 46.1741 36.6254C41.1454 45.5416 34.171 52.3512 24.8657 56.648C24.0321 57.0325 23.2528 57.151 22.3631 56.7428C12.6184 52.2747 5.418 45.1243 0.414575 35.6578C0.157804 35.1731 0.0221851 34.5645 0.0203769 34.0124C-0.00493862 26.421 0.000486128 20.8296 0.00410263 13.2364C0.00410263 11.7968 0.45074 11.077 1.6478 10.7508C6.07439 9.54453 10.1393 7.49635 14.1175 5.27506C16.8281 3.76261 19.4609 2.10257 22.0937 0.451632C23.1027 -0.18068 23.9941 -0.135124 24.9489 0.488076C29.3502 3.36355 33.8654 6.04404 38.6608 8.19609C40.7711 9.14364 42.9699 9.89987 45.1543 10.6634C46.4761 11.1262 46.9734 11.6729 46.9752 13.1033C46.9806 16.93 46.977 20.7567 46.977 24.5834H46.9788ZM4.27157 25.1792C4.27157 28.4282 4.24987 29.6773 4.29146 32.9263C4.29869 33.5295 4.44335 34.2037 4.73991 34.7194C8.99471 42.1486 14.7504 48.0307 22.3577 52.0068C23.1931 52.4423 23.8459 52.4296 24.6777 51.9977C31.9179 48.2293 37.4475 42.6625 41.7294 35.7435C42.4726 34.5426 42.8704 33.3327 42.7692 31.9004C42.6697 30.4809 42.7475 29.0468 42.7475 27.62C42.7475 22.8221 42.7475 20.0241 42.7475 15.2262C42.7475 14.8071 42.8126 14.4226 42.2376 14.2295C36.4566 12.2906 31.1241 9.39876 26.0212 6.11511C24.1876 4.93613 22.9218 4.85959 21.0431 6.08048C15.9293 9.4024 10.5552 12.2779 4.76522 14.2823C4.52834 14.3643 4.29689 14.8563 4.29327 15.1588C4.25891 18.4989 4.27157 21.8391 4.27157 25.1792Z" fill="#6CBDB1"/>
<path d="M21.4408 32.4101C23.1586 30.648 24.8204 28.9351 26.4894 27.2313C27.7389 25.9576 28.9938 24.6875 30.2596 23.4302C31.3174 22.3788 32.5362 22.3223 33.4457 23.2552C34.3734 24.2065 34.3101 25.3745 33.2378 26.4605C29.8563 29.8809 26.4695 33.2957 23.0718 36.7014C21.9199 37.8567 20.8332 37.8586 19.6922 36.7197C17.7013 34.7334 15.7195 32.7345 13.7467 30.73C12.7069 29.6731 12.6635 28.4358 13.602 27.5229C14.4989 26.6501 15.7231 26.712 16.7303 27.7088C18.063 29.0299 19.3757 30.3674 20.6994 31.6976C20.9073 31.9072 21.1225 32.1076 21.439 32.4101H21.4408Z" fill="#6CBDB1"/>
</svg>
